<svg xmlns="http://www.w3.org/2000/svg" viewBox="0 0 36.833176 36.831059" height="139.204" width="139.212"><g fill-rule="evenodd" fill="#8a6903"><path d="M13.893 27.946c0 .363-.037.595.291.921.63.625 1.486.552 1.486-.153 0-.183-.083-.305-.206-.36-.21-.09-.19-.025-.4-.165v-.243c.116-.026.249-.159.58.026.156.086.3.227.42.348.307.305.417.543.525 1.01l1.579 7.225c.033.13.034.208.127.276 0-.222.075-.442.112-.615l.678-2.997c.324-1.273.6-2.889.978-4.191.438-1.508 1.895-1.257 1.175-.683-.394.314-.418 1.015.248 1.015 1.012 0 1.477-1.417.84-2.092-.563-.596-1.627-.306-2.225.141-.843.632-1.265 1.823-1.589 2.814-.041.126-.066.223-.1.344-.033.114-.047.228-.117.328a14.653 14.653 0 0 0-.178-.67c-.064-.225-.131-.467-.214-.675-.34-.856-.642-1.555-1.395-2.118-.265-.197-.952-.495-1.282-.495-.415 0-.432-.043-.755.133l-.251.193c-.153.16-.327.4-.327.683m13.045-13.125c0 .973.24 1.464.879 2.11.182.185.288.242.503.386.53.356 1.235.598 1.875.79.226.068.492.139.701.187l-.641.207c-1.645.523-3.317 1.185-3.317 3.145 0 .815 1.163 1.342 2.027.653.516-.41.585-1.34-.088-1.34-.22 0-.427.148-.53.278-.508.637-.732-.414.153-.937.364-.215.656-.28 1.104-.39l5.103-1.157c.11-.028.16-.054.286-.078l1.191-.262c.197-.041.417-.119.65-.119-.096-.13-.337-.13-.59-.178-.12-.024-.177-.047-.29-.073l-4.16-.89c-.83-.177-1.675-.386-2.53-.579-.52-.117-1.107-.513-1.317-.984-.117-.261-.102-.393.082-.567.416.097.167.366.413.557.334.26 1.118-.025.764-.886-.46-1.114-1.695-.975-2.14-.23-.044.075-.128.254-.128.357M15.347 8.925c-.27 0-.282-.097-.282-.242 0-.296.605-.091.605-.566 0-.584-.456-.727-.945-.542-.17.065-.402.215-.52.329-.45.43-.413 1.168 0 1.598.089.092.15.158.26.224.574.34 1.532-.02 2.022-.348 1.016-.678 1.54-2.33 1.808-3.482.073.104.161.497.207.641.068.215.14.434.222.667.52 1.492 1.281 2.65 2.924 2.65.285 0 .532-.175.677-.332.624-.675.213-2.091-.88-2.091-.596 0-.595.696-.23.998.371.305.183.456.07.456-.502 0-.753-.195-1.02-.638l-.296-.794-1.285-5.62c-.048-.21-.105-.422-.135-.592C18.493.93 18.295.216 18.295 0h-.08c-.003.143-.028.175-.056.307l-1.24 5.748c-.026.119-.05.17-.072.29-.03.158-.027.152-.07.295-.141.486-.192 1.244-.552 1.668-.15.175-.604.617-.878.617m-7.31 6.745c.183 0 .317-.052.39-.176.064-.107.032-.096.065-.218.037-.133.04-.106.11-.212h.243c.028.123.151.227-.012.553-.239.478-.794.847-1.338.965l-.88.21c-.13.037-.198.035-.337.067l-4.37.96c-.182.04-.424.083-.632.136L0 18.295c.212.004.935.2 1.2.252 1.32.26 2.806.65 4.148.942.218.047.41.085.597.13.402.095.773.172 1.18.275.488.124 1.176.277 1.507.673.5.596.198 1.186-.191.676-.366-.48-1.01-.301-1.01.161 0 1.533 2.423 1.629 2.423.162 0-2.01-2.027-2.67-3.63-3.155-.116-.036-.223-.044-.327-.117.664-.155 1.359-.37 1.978-.646.887-.395 1.68-1.073 1.903-2.056.128-.567.176-.953-.276-1.388-.336-.323-.545-.312-.94-.312-.68 0-1.205.973-1.037 1.398.084.214.239.38.512.38m10.541-1.778c0 .701.155.768.768.768.208 0 .08-.24.08-.727 0-.583.052-1.077.119-1.578.146-1.084.281-1.088 1.012-1.088.604 0 1.678.646 2.051 1.02.4.4.095.596-.14.972-.088.142-.22.32-.327.44-1.008 1.147-1.323 2.615.314 3.343.759.338 1.193.309 1.997.18 1.589-.256.964.03 1.475.751.215.303.394.26.648.2.121-.253.083-2.019-.565-2.019-.995 0-2.263.811-3.25.139-1.056-.721-.339-1.348.067-1.949l.51-.661c.52-.766.921-1.2.245-1.846l-.353-.293c-.393-.29-.897-.534-1.367-.733-.653-.277-1.763-.674-2.436-.674-.24 0-.41.487-.47.66a5.573 5.573 0 0 0-.222.949 13.6 13.6 0 0 0-.156 2.146m-8.481 4.968c0 .397.079 1.177.235 1.501.155.322.308.276.532.276.318 0 .792-.137 1.082-.21.685-.172 1.427-.355 2.058.099 1.131.814.154 1.514-.345 2.259-.226.337-.856 1.045-.856 1.527 0 .988 2.577 1.915 3.508 2.186 1.025.3 1.298.35 1.589-.885.112-.476.427-2.785.196-3.242-.12-.236-.5-.272-.81-.2.024.355.076.818.03 1.16-.05.356-.05.806-.14 1.275-.091.478-.147 1.037-.888.949-.727-.088-1.36-.41-1.945-.845-.831-.616-.206-.898.439-1.812.314-.445.646-.922.646-1.615 0-.627-.347-1.042-.726-1.293-1.29-.852-2.19-.323-3.232-.323-.438 0-.368-.28-.51-.58-.346-.722-.863-.586-.863-.227m15.186.807c-.687 0-.871-.16-1.656-.16-.863 0-1.761.444-2.084.984-.21.351-.311.72-.193 1.21.183.763.8 1.383 1.162 1.908.367.533.53.63-.39 1.298-.355.256-1.27.657-1.686.657-.736 0-.758-.36-.872-.987-.11-.615-.138-1.194-.138-1.88 0-.246.04-.295.04-.526-.962-.224-.887.458-.888.97 0 .855.106 1.972.349 2.801.18.619.358.8.858.708.96-.177 2.676-.812 3.45-1.397 1.019-.772.875-1.161-.127-2.442-.363-.464-.895-.992-.895-1.609 0-.22.315-.56.526-.685.117-.07.27-.164.406-.2 1.05-.285 1.75.32 2.986.32.41 0 .747-2.06.282-2.06-.523 0-.63.497-.764.891-.056.163-.152.2-.366.2m-12.48-7.229c0 .5.589 1.238.854 1.569.312.391.882 1.062.882 1.54 0 .398-.683 1.01-1.453 1.01-.868 0-1.66-.404-2.383-.404-.563 0-.606 1.42-.606 1.858 0 .2.494.461.862-.309.157-.329.084-.454.275-.533.362-.15 1.472.155 1.69.155.626 0 1.303-.203 1.689-.452.968-.624 1.003-1.537.498-2.462l-.79-1.107c-.13-.166-.387-.447-.387-.704 0-.391 1.564-1.333 2.261-1.333.644 0 .875-.01 1.004 1.057.068.57.186 1.434.096 2.026-.054.348.019.31.314.31.524 0 .565-.378.565-.848 0-.424-.162-3.675-.848-3.675-1.058 0-2.97.81-3.871 1.46l-.068.052c-.201.156-.302.211-.457.472l-.029.052c-.067.121-.098.148-.098.266"/><path d="M16.72 18.416c.038.14.953 1.572 1.123 1.865.219.378.23.23.353.175l.166-.075c.35-.157 2.059-.996 2.236-1.037-.055.113-.075.225-.134.351-.358.766-1.142 1.386-2.047 1.386-.53 0-.82.015-1.31-.306-.489-.32-.82-.84-1.039-1.384l-.222-.707c-.029-.119-.001-.188-.135-.188h-1.656v.687c1.24 0 .956-.13 1.166.45.293.81.9 1.436 1.674 1.798 1.312.616 3.835.213 4.562-1.712.053-.14.147-.456.15-.617h1.01v-.606h-1.939c-.13 0-1.587.774-1.885.942-.143.08-.516.277-.66.31-.04-.154-.548-.95-.686-1.211.121-.033.737-.364.889-.444-.03-.127-.138-.284-.202-.404-.1.026-.573.28-.7.35-.25.14-.468.246-.714.377"/><path d="M14.984 17.648h-.93c0 .417-.058.606.122.606h1.818c.185 0 1.587-.775 1.844-.902l.449-.238c.099-.045.052-.04.17-.072.106.072.697 1.018.727 1.131-.303.16-.588.326-.889.485.082.153.201.249.243.404.132-.031.254-.1.361-.164.125-.072.228-.132.366-.2.148-.073.603-.29.686-.404l-1.252-2.06c-.158.014-1.655.737-1.925.862-.124.057-.199.103-.322.162-.127.061-.225.088-.337.148.028-.347.479-.995.766-1.212.984-.747 2.495-.768 3.273.323.396.554.547.97.726 1.737l1.415.001c.412.007.363.063.363-.486 0-.202-.666-.12-1.05-.12-.061-.727-.856-1.733-1.414-2.102a3.87 3.87 0 0 0-.47-.256c-.985-.472-2.693-.178-3.553.475-.516.393-.917.97-1.046 1.62-.028.137.017.262-.141.262M25.475 24.1c.068.259 1.132 2.21 1.18 2.393-.152-.013-.475-.18-.61-.237l-1.218-.52c-.206-.088-.418-.203-.635-.253-.045.168-.197.258-.313.373-.16.16-.208.208-.333.394l5.525 2.762c-.236-.477-.477-.925-.719-1.39l-2.221-4.158-.656.636M10.258 13.166c.093-.062.11-.092.192-.172.16-.156.389-.276.576-.555l-1.05-2.424c.156.042 0-.004.142.06.09.04.083.036.164.079l2.117 1.073.18-.184.022-.018c.148-.122.343-.294.444-.444l-2.759-1.482c-.13-.076-.219-.107-.343-.181-.123-.073-.21-.113-.345-.181l-1.703-.922c-.142-.076-.235-.148-.383-.182.036.155.096.215.154.33l1.205 2.43c.071.138.099.172.165.32l1.222 2.453m13.288-2.746c.081.153.036.089.156.206l.53.56c.193-.092.388-.157.593-.255l1.22-.518c.197-.081.42-.176.61-.276-.017.216-.748 1.537-.874 1.79-.086.172-.257.464-.296.633l.636.656 2.958-5.543c-.16.037-1.155.557-1.387.673l-3.44 1.73c-.253.126-.47.219-.706.343M7.512 29.037c.173-.04 1.453-.767 1.723-.902.926-.46 2.192-1.221 3.096-1.67l.714-.376c-.18-.268-.509-.441-.646-.646l-2.423 1.211c.192-.364.354-.826.524-1.212.089-.203.162-.388.248-.6a7.76 7.76 0 0 1 .278-.611l-.768-.727-1.095 2.216c-.033.065-.055.116-.093.19-.065.125-.122.245-.178.347-.123.23-.216.436-.339.671l-.08.162-.96 1.947m15.266-7.633c0 .294.004.532.252.757.63.57 1.484.056 1.484-.555 0-.27.037-.36-.133-.594-.58-.8-1.603-.251-1.603.392m-10.582-6.139c0 .888 1.148 1.3 1.655.484.282-.453.14-1.332-.847-1.332-.427 0-.808.437-.808.848m11.43.929c.473 0 .888-.427.888-.726 0-.401.038-.512-.23-.78-.308-.305-.717-.366-1.077-.164a.61.61 0 0 0-.24.203.905.905 0 0 0-.067 1.063c.038.057-.001.005.054.067.14.156.41.337.672.337m-9.653 5.452v-.202c0-.802-1.26-1.222-1.658-.325-.04.089-.109.212-.114.327a.903.903 0 0 0 .455.831c.087.054.24.075.35.1.198.046.154.016.263-.017l.032-.01c.239-.065.183.004.34-.147.124-.117.332-.337.332-.557m-2.988-5.694c.385 0 .341.005.679-.492l1.219-1.85c0-.252-.315-.612-.508-.47a4.235 4.235 0 0 0-.184.222l-.22.265c-.26.307-1.219 1.69-1.309 1.967-.076.234.17.358.323.358m12.883 7.31c0 .11.073.218.15.294a.59.59 0 0 0 .294.15c.314-.21 1.777-2.373 1.777-2.544 0-.335-.545-.454-.77-.165l-.635.94c-.14.208-.816 1.15-.816 1.325m0-9.774c0 .294.6 1.02.78 1.32l.424.627c.244.367.249.517.654.517.167 0 .363-.113.363-.283 0-.25-1.453-2.34-1.817-2.584-.114.06-.404.253-.404.403M12.44 23.706c.202-.047.444-.245.444-.485 0-.111-.223-.326-.29-.438l-.727-1.13c-.075-.114-.147-.185-.224-.301-.052-.08-.043-.078-.086-.156a1.124 1.124 0 0 0-.114-.169c-.309-.39-.96-.114-.768.24.038.069.075.117.122.204l.38.59c.067.08.079.09.14.183.21.318.931 1.334 1.122 1.462m15.065-4.402c.264-.006 1.512-.664 1.887-.819.152-.063.165-.03.253-.15-.32-.075-1.888-.908-2.14-.93v1.899m-9.289 10.379l.754-1.63c.08-.161.23-.304.016-.347-.112-.022-.458-.015-.58-.031-.194-.027-.397-.004-.595-.01-.214-.006-.306-.042-.564-.042.201.382.79 1.93.969 2.06M7.23 18.214v.08c.135.012.807.347.982.43.169.082.289.155.46.228.194.083.326.141.496.231 0-.275.08-.87.08-1.375 0-.234.041-.28.041-.483-.129.01-.401.148-.524.202l-1 .455c-.166.072-.39.198-.536.232m10.218-8.926c.633 0 1.188.081 1.858.081l-.969-2.02-.674 1.427c-.062.125-.186.39-.215.512m-2.947 3.07l.686 1.251c.19-.05.9-.551 1.13-.605-.044-.193-.64-1.08-.686-1.252-.129.01-.949.484-1.13.606m-.162 12.236c.184.098.34.201.537.311.152.085.423.281.593.295.116-.219.221-.36.337-.592.112-.227.234-.4.35-.62-.171-.114-.966-.591-1.13-.605l-.333.597c-.064.117-.116.186-.18.305-.072.137-.096.193-.174.31m6.138-.606c.061.115.094.176.162.282l.525.93c.195-.017.942-.48 1.131-.607-.115-.216-.228-.397-.35-.62-.087-.158-.264-.508-.377-.591l-1.09.606m1.777-11.631l-.128-.075c-.22-.127-.792-.517-.963-.531-.103.193-.183.392-.3.589-.121.205-.24.382-.346.582.137.205.315.23.533.355.147.085.425.296.557.331l.324-.645c.059-.103.12-.174.189-.297l.134-.31M11.268 17.85v1.171h1.292c0-1.402.08-1.294-.213-1.275-.094.006-.043 0-.145.003-.36.009-.934-.133-.934.101m12.884-.161v1.252h1.292v-1.252c-.403-.095-.885-.043-1.292 0"/><path d="M24.475 11.348c.116.174.28.301.434.455.132.131.315.385.495.433.07-.304.656-1.27.727-1.574-.192.044-.26.11-.393.172l-1.263.514m-13.934 14.66c.214-.05.895-.382 1.185-.511.126-.056.315-.149.43-.176-.036-.158-.492-.573-.64-.692-.088-.073-.181-.167-.288-.196-.013.15-.62 1.45-.687 1.575m13.974-.687c.388.205 1.246.51 1.616.687-.066-.281-.649-1.238-.727-1.575-.146.039-.85.743-.889.888M11.228 12.236c.127-.033.22-.148.305-.22l.19-.173c.2-.199.396-.335.434-.495-.292-.068-1.287-.61-1.616-.686.096.181.636 1.356.687 1.574m4.402 10.097c.12.028.185.069.28.123l.555.294c.107.06.197.096.296.148.065-.122.23-.384.242-.525-.148-.034-.107-.043-.278-.125-.236-.115-.702-.396-.893-.44-.125.26-.198.342-.202.525m-.364.767l1.131.566c.048-.09.072-.143.13-.235.067-.107.1-.14.112-.29-.155-.037-.277-.12-.412-.194l-.759-.372c-.05.213-.183.304-.202.525m.485-8.44l.243.484c.29-.067.935-.502 1.17-.565-.038-.166-.165-.4-.282-.485-.131.03-.16.074-.273.132-.053.027-.086.038-.136.065l-.722.369m-.323-.808c.007.301.146.283.202.525.303-.07.93-.51 1.171-.565-.018-.223-.183-.263-.202-.485-.242.006-.416.157-.593.255-.135.076-.44.238-.578.27m4.2.727l.28.124c.093.05.178.106.285.159.156.077.442.244.606.282.078-.145.198-.32.203-.525-.263-.06-.914-.484-1.09-.525-.118.086-.245.319-.284.485m.364 8.602l.242.485 1.13-.566c-.004-.234-.15-.304-.2-.525-.091.024-.511.247-.62.311-.325.191-.288.118-.552.295m-.364-.808c.05.214.197.354.243.525l1.13-.606c-.063-.133-.028-.156-.202-.484-.259.06-.918.506-1.17.565m.363-8.561c.368.085.788.476 1.171.565.047-.175.14-.221.202-.485l-1.09-.565c-.102.068-.27.333-.283.485m-7.23 4.038v1.212c.701 0 .463.035.465-.848l.02-.364c0-.127.044-.103-.242-.103-.222 0-.243-.032-.243.103m10.744 1.09h.444v-1.292h-.444v1.293m-1.252-6.583v.04l.046-.033z"/></g></svg>